<?xml version="1.0" encoding="UTF-8"?><svg id="Layer_2" xmlns="http://www.w3.org/2000/svg" viewBox="0 0 856.63 856.63"><defs><style>.cls-1{fill:#fff;font-family:PTMono-Regular, 'PT Mono';font-size:115px;}</style></defs><g id="Layer_1-2"><text class="cls-1" transform="translate(216.45 359.53) rotate(-63.15)"><tspan x="0" y="0">t</tspan></text><text class="cls-1" transform="translate(244.63 302.17) rotate(-46.61)"><tspan x="0" y="0">h</tspan></text><text class="cls-1" transform="translate(288.01 255.25) rotate(-30.08)"><tspan x="0" y="0">i</tspan></text><text class="cls-1" transform="translate(342.94 222.54) rotate(-13.67)"><tspan x="0" y="0">s</tspan></text><text class="cls-1" transform="translate(404.83 206.72) rotate(2.91)"><tspan x="0" y="0"> </tspan></text><text class="cls-1" transform="translate(468.7 209.25) rotate(19.34)"><tspan x="0" y="0">i</tspan></text><text class="cls-1" transform="translate(529.25 229.71) rotate(35.8)"><tspan x="0" y="0">s</tspan></text><text class="cls-1" transform="translate(581.51 266.49) rotate(52.4)"><tspan x="0" y="0"> </tspan></text><text class="cls-1" transform="translate(621.08 316.71) rotate(68.77)"><tspan x="0" y="0">t</tspan></text><text class="cls-1" transform="translate(644.92 375.97) rotate(85.34)"><tspan x="0" y="0">h</tspan></text><text class="cls-1" transform="translate(650.82 439.59) rotate(101.84)"><tspan x="0" y="0">e</tspan></text><text class="cls-1" transform="translate(638.42 502.32) rotate(118.26)"><tspan x="0" y="0"> </tspan></text><text class="cls-1" transform="translate(608.84 558.95) rotate(134.81)"><tspan x="0" y="0">p</tspan></text><text class="cls-1" transform="translate(564.25 604.82) rotate(151.33)"><tspan x="0" y="0">o</tspan></text><text class="cls-1" transform="translate(508.6 636.15) rotate(167.75)"><tspan x="0" y="0">r</tspan></text><text class="cls-1" transform="translate(446.32 650.42) rotate(-175.67)"><tspan x="0" y="0">t</tspan></text><text class="cls-1" transform="translate(382.54 646.32) rotate(-159.25)"><tspan x="0" y="0">f</tspan></text><text class="cls-1" transform="translate(322.49 624.37) rotate(-142.77)"><tspan x="0" y="0">o</tspan></text><text class="cls-1" transform="translate(271.18 586.32) rotate(-126.18)"><tspan x="0" y="0">l</tspan></text><text class="cls-1" transform="translate(232.85 535.14) rotate(-109.82)"><tspan x="0" y="0">i</tspan></text><text class="cls-1" transform="translate(210.49 475.32) rotate(-93.24)"><tspan x="0" y="0">o</tspan></text></g></svg>