<?xml version="1.0" encoding="UTF-8"?><svg id="Layer_2" xmlns="http://www.w3.org/2000/svg" viewBox="0 0 496.58 361.25"><defs><style>.cls-1{font-family:PTMono-Regular, 'PT Mono';font-size:51.23px;}.cls-1,.cls-2{fill:#262626;}.cls-2,.cls-3{stroke-width:0px;}.cls-3{fill:#ef6262;}</style></defs><g id="Layer_1-2"><path class="cls-3" d="M179.2,359.75c-.59-.06-2.69-1.1-4.82-11.98-1.49-7.62-2.59-17.85-3.65-27.74-2.62-24.38-4.51-39.38-10.12-40.64-.28-.06-.57-.09-.87-.09-5.87,0-14.22,12.72-27.28,33.67-8.1,12.99-19.19,30.78-23.34,30.78-.08,0-.15-.01-.22-.04-.56-.21-2.33-1.77-1.3-12.88.72-7.78,2.57-17.97,4.35-27.82,4.32-23.8,6.71-38.54,1.85-41.41-.67-.4-1.49-.6-2.41-.6-6.61,0-20.67,10.91-35.55,22.46-12.54,9.73-26.76,20.77-31.77,20.77-.25,0-.59-.03-.76-.2-.43-.4-1.38-2.44,4.22-11.84,3.96-6.63,10-14.97,15.84-23.04,14.07-19.44,22.55-31.59,19.68-36.45-1.4-2.37-5.51-3.43-13.33-3.43s-18.41,1.06-28.69,2.08c-10.24,1.02-20.84,2.07-28.53,2.07-10.04,0-10.93-1.84-11-2.21-.08-.39.04-2.54,10.16-6.74,7.01-2.91,16.73-5.97,26.13-8.94,23.14-7.29,37.36-12.05,38.1-17.77.73-5.59-11.85-13.43-32.44-25.76-8.55-5.12-17.39-10.42-23.63-14.95-8.85-6.43-8.77-8.68-8.54-9.22.19-.43,1.34-.94,3.94-.94,7.07,0,20.79,3.58,34.06,7.05,14,3.66,28.47,7.44,36.54,7.44,3.61,0,5.83-.72,6.97-2.28,3.34-4.55-4.66-17.15-17.99-37.34-5.52-8.36-11.23-17-14.95-23.86-5.31-9.81-4.31-11.93-3.87-12.35.21-.2.67-.23.92-.23,5.25,0,19.9,10.22,32.82,19.23,15.2,10.6,29.55,20.61,36.25,20.61,1.14,0,2.09-.27,2.84-.82,4.67-3.36.5-17.9-6.68-41.35-2.92-9.51-5.93-19.35-7.56-26.93-2.33-10.84-.81-12.62-.29-12.91.1-.06.23-.08.4-.08,4.55,0,17.54,14.9,27.98,26.86,15.63,17.92,25.54,28.79,31.38,28.79.57,0,1.11-.1,1.6-.31,5.37-2.25,4.44-17.46,2.47-42.09-.79-9.87-1.61-20.07-1.57-27.78.06-11.02,1.9-12.44,2.46-12.61.06-.02.12-.03.19-.03,4.19,0,14.72,18.53,22.4,32.07,12.17,21.43,19.97,34.44,25.76,34.44.26,0,.52-.03.77-.08,5.98-1.23,8.03-16.77,10.87-42.02,1.08-9.61,2.2-19.54,3.65-26.88,2.11-10.68,4.13-11.43,4.52-11.47h0c4.34,0,11.79,22.14,16.72,36.79,7.87,23.39,12.99,37.73,18.8,37.73,6.17-.05,11.29-14.91,19.13-39.16,4.61-14.25,11.58-35.79,15.5-35.79.65.06,2.75,1.1,4.87,11.99,1.49,7.62,2.59,17.84,3.65,27.74,2.62,24.38,4.51,39.38,10.12,40.64.28.06.57.09.87.09,5.87,0,14.22-12.72,27.28-33.66,8.1-12.99,19.19-30.78,23.34-30.78.08,0,.15.01.22.04.56.21,2.33,1.77,1.3,12.88-.72,7.78-2.57,17.97-4.35,27.82-4.32,23.8-6.71,38.54-1.85,41.41.67.4,1.49.6,2.41.6,6.61,0,20.67-10.91,35.55-22.46,12.54-9.73,26.76-20.77,31.77-20.77.25,0,.59.03.76.2.43.4,1.38,2.44-4.22,11.84-3.96,6.63-10,14.98-15.84,23.05-14.07,19.43-22.55,31.59-19.68,36.45,1.4,2.37,5.51,3.43,13.33,3.43s18.41-1.06,28.68-2.08c10.24-1.02,20.84-2.07,28.53-2.07,10.04,0,10.93,1.84,11,2.21.08.39-.04,2.54-10.16,6.74-7.01,2.91-16.73,5.97-26.13,8.94-23.14,7.29-37.36,12.05-38.1,17.77-.73,5.59,11.85,13.43,32.44,25.76,8.55,5.12,17.39,10.42,23.63,14.95,8.85,6.43,8.77,8.68,8.54,9.22-.19.43-1.34.94-3.94.94-7.07,0-20.79-3.58-34.06-7.05-14-3.66-28.47-7.44-36.54-7.44-3.61,0-5.83.72-6.97,2.28-3.34,4.55,4.66,17.15,17.99,37.34,5.52,8.36,11.23,17,14.95,23.87,5.31,9.81,4.31,11.93,3.87,12.35-.21.2-.67.23-.92.23h0c-5.25,0-19.9-10.22-32.83-19.23-15.2-10.6-29.55-20.61-36.24-20.61-1.14,0-2.09.27-2.84.81-4.67,3.36-.5,17.9,6.68,41.35,2.92,9.51,5.93,19.35,7.56,26.93,2.33,10.84.81,12.62.29,12.91-.1.06-.23.08-.4.08-4.55,0-17.54-14.9-27.98-26.87-15.63-17.92-25.54-28.79-31.38-28.79-.57,0-1.11.1-1.59.31-5.37,2.25-4.44,17.46-2.47,42.09.79,9.87,1.61,20.07,1.57,27.78-.06,11.02-1.9,12.44-2.46,12.61-.06.02-.12.03-.19.03-4.19,0-14.72-18.53-22.4-32.07-12.17-21.43-19.97-34.44-25.76-34.44-.26,0-.52.03-.77.08-5.98,1.23-8.03,16.77-10.87,42.02-1.08,9.61-2.2,19.54-3.65,26.88-2.11,10.68-4.13,11.43-4.52,11.47h0c-4.34,0-11.79-22.14-16.71-36.79-7.87-23.39-12.99-37.73-18.8-37.73-6.17.05-11.29,14.91-19.13,39.16-4.61,14.25-11.58,35.79-15.5,35.79h-.05Z"/><path class="cls-2" d="M317.26,3.17c.61.69,2.14,3.23,3.75,12.11,1.33,7.36,2.36,16.89,3.35,26.1,3.08,28.7,4.97,40.53,11.29,41.94.39.09.79.13,1.19.13,6.45,0,13.65-10.47,28.55-34.37,4.68-7.5,9.52-15.26,13.66-21.01,4.89-6.77,7.23-8.49,8.09-8.93.4.87,1.14,3.76.19,12.71-.8,7.48-2.52,16.96-4.18,26.12-5.08,28.01-6.6,39.74-1.14,42.97.91.54,1.98.81,3.18.81,6.64,0,18.21-8.6,36.47-22.78,10.81-8.39,25.5-19.79,30.45-20.42-.06,1.05-.77,4-5.27,11.26-3.9,6.3-9.46,13.98-14.85,21.42-16.54,22.84-22.95,32.68-19.76,38.09,1.72,2.92,6.1,4.16,14.63,4.16,7.85,0,18.52-1.06,28.83-2.08,10.21-1.01,20.76-2.06,28.38-2.06,6.06,0,8.39.67,9.25,1.07-.72.8-3.08,2.69-10.75,5.71-6.75,2.66-15.64,5.47-24.24,8.18-26.58,8.38-38.32,12.71-39.13,19.01-.81,6.23,8.96,12.75,33.15,27.24,7.87,4.72,16.01,9.59,22.07,13.85,6.96,4.89,8.79,7.32,9.27,8.26-.42.1-1.14.22-2.34.22-6.88,0-20.51-3.56-33.68-7-14.09-3.68-28.66-7.49-36.92-7.49-2.6,0-6.27.3-8.18,2.89-3.76,5.11,2.26,15.3,17.95,39.06,5.13,7.77,10.44,15.81,14.12,22.37,4.39,7.83,4.85,10.79,4.83,11.75-4.99-.28-19.82-10.62-31.76-18.95-18.63-12.99-30.42-20.88-37.1-20.88-1.46,0-2.71.37-3.72,1.1-5.25,3.79-2.33,15.4,6.13,43,2.72,8.86,5.52,18.02,7.2,25.31,2.02,8.8,1.61,11.73,1.32,12.61-.89-.27-3.49-1.54-9.53-7.58-5.05-5.05-11.11-11.99-16.96-18.7-15.85-18.17-25.9-29.31-32.51-29.31-.77,0-1.5.14-2.18.42-6.05,2.53-5.7,14.6-3.38,43.6.74,9.19,1.5,18.7,1.56,26.13.07,9-.95,11.76-1.41,12.54-.81-.42-3.12-2.17-7.88-9.36-3.97-5.99-8.54-14.04-12.96-21.82-12.76-22.47-20.31-35.19-27.06-35.19h0c-.36,0-.72.04-1.07.11-6.66,1.37-8.79,14.25-12.06,43.33-1,8.89-2.03,18.09-3.32,25.16-1.55,8.49-2.98,11-3.56,11.71-.73-.54-2.76-2.67-6.23-10.98-2.87-6.86-5.91-15.9-8.85-24.64-9.26-27.53-13.69-38.75-20.26-38.75-6.82.05-11.49,12.29-20.52,40.2-2.74,8.48-5.58,17.24-8.24,23.88-3.18,7.93-5.07,10.12-5.78,10.71-.61-.69-2.14-3.22-3.74-12.11-1.33-7.36-2.36-16.89-3.35-26.1-3.08-28.7-4.97-40.53-11.29-41.94-.39-.09-.79-.13-1.19-.13h0c-6.45,0-13.65,10.47-28.55,34.37-4.68,7.5-9.51,15.26-13.66,21.01-4.89,6.77-7.23,8.49-8.09,8.93-.4-.86-1.14-3.76-.19-12.71.8-7.48,2.52-16.96,4.18-26.12,5.08-28.01,6.6-39.74,1.14-42.97-.91-.54-1.98-.81-3.18-.81-6.64,0-18.21,8.6-36.47,22.78-10.81,8.39-25.5,19.79-30.45,20.43.06-1.05.77-4,5.27-11.26,3.9-6.3,9.46-13.98,14.85-21.42,16.54-22.84,22.95-32.68,19.76-38.09-1.72-2.92-6.1-4.16-14.63-4.16-7.85,0-18.52,1.06-28.83,2.08-10.21,1.01-20.76,2.06-28.38,2.06-6.06,0-8.39-.67-9.25-1.07.72-.8,3.08-2.69,10.75-5.71,6.75-2.66,15.64-5.47,24.24-8.18,26.58-8.38,38.32-12.71,39.13-19.01.81-6.23-8.96-12.75-33.15-27.24-7.87-4.72-16.01-9.59-22.07-13.85-6.96-4.89-8.79-7.32-9.27-8.26.42-.1,1.14-.22,2.34-.22,6.88,0,20.5,3.56,33.68,7,14.09,3.68,28.66,7.49,36.92,7.49,2.6,0,6.27-.3,8.18-2.89,3.76-5.11-2.26-15.3-17.95-39.06-5.13-7.77-10.44-15.81-14.12-22.37-4.39-7.83-4.85-10.79-4.83-11.75,4.99.28,19.82,10.62,31.76,18.95,18.63,12.99,30.42,20.88,37.11,20.88,1.46,0,2.71-.37,3.72-1.1,5.25-3.79,2.33-15.4-6.13-43-2.72-8.86-5.52-18.02-7.2-25.31-2.02-8.8-1.61-11.73-1.32-12.61.89.27,3.49,1.54,9.53,7.58,5.05,5.05,11.1,11.99,16.96,18.7,15.85,18.17,25.9,29.31,32.51,29.31.77,0,1.5-.14,2.17-.42,6.05-2.53,5.7-14.6,3.38-43.6-.74-9.19-1.5-18.7-1.56-26.13-.07-9,.95-11.76,1.41-12.54.81.42,3.12,2.17,7.88,9.36,3.97,5.99,8.54,14.04,12.96,21.82,12.76,22.48,20.31,35.2,27.06,35.2.36,0,.73-.04,1.07-.11,6.66-1.37,8.79-14.25,12.06-43.33,1-8.89,2.03-18.09,3.32-25.16,1.55-8.49,2.98-11,3.56-11.71.73.54,2.76,2.67,6.23,10.98,2.87,6.86,5.91,15.9,8.85,24.64,9.26,27.54,13.69,38.75,20.26,38.75,6.82-.05,11.49-12.29,20.52-40.2,2.74-8.48,5.58-17.24,8.24-23.88,3.18-7.93,5.07-10.12,5.78-10.71M317.32,0c-10.14,0-24,74.87-34.62,74.96,0,0-.01,0-.02,0-10.16,0-24.87-74.52-35.44-74.52-.08,0-.16,0-.24.01-10.21,1.1-8.75,78.26-19.17,80.4-.15.03-.31.05-.47.05-10.57,0-37.94-66.5-48.16-66.5-.22,0-.43.03-.63.09-10.19,3.12,5.95,78.59-3.5,82.54-.31.13-.65.19-1.02.19-11.04,0-48.79-55.66-59.36-55.66-.42,0-.8.09-1.13.27-9.4,5.18,22.62,75.34,14.38,81.29-.5.36-1.16.53-1.97.53-12.28,0-57.47-39.84-69.07-39.84-.84,0-1.5.21-1.96.65-7.81,7.5,42.61,65.63,36.64,73.75-.86,1.17-2.89,1.67-5.76,1.67-15.54,0-55.87-14.49-70.6-14.49-2.85,0-4.75.54-5.31,1.84-4.32,9.86,65.81,40.21,64.49,50.35C73.07,207.95-2.08,221.16.04,231.52c.52,2.54,5.37,3.41,12.47,3.41,15.51,0,41.78-4.15,57.21-4.15,6.35,0,10.87.7,12.04,2.69,5.2,8.8-47.33,64.29-39.48,71.66.44.41,1.04.6,1.79.6,11.23,0,55.33-43.23,67.32-43.23.65,0,1.2.13,1.65.39,8.68,5.12-14.8,78.4-4.67,82.22.24.09.48.13.75.13,10.12,0,39.86-64.45,50.62-64.45.18,0,.36.02.54.06,9.92,2.22,8.09,79.32,18.77,80.39.07,0,.13.01.2.01,10.14,0,24-74.87,34.62-74.96,0,0,.01,0,.02,0,10.16,0,24.87,74.52,35.44,74.52.08,0,.16,0,.24-.01,10.21-1.1,8.75-78.26,19.17-80.4.15-.03.31-.05.47-.05,10.57,0,37.94,66.5,48.16,66.5.22,0,.43-.03.63-.09,10.19-3.12-5.95-78.59,3.5-82.54.31-.13.65-.19,1.02-.19,11.04,0,48.79,55.66,59.36,55.66.42,0,.8-.09,1.13-.27,9.4-5.18-22.62-75.34-14.38-81.29.5-.36,1.16-.53,1.97-.53,12.28,0,57.47,39.84,69.07,39.84.84,0,1.5-.21,1.96-.65,7.81-7.5-42.61-65.63-36.64-73.75.86-1.17,2.89-1.67,5.76-1.67,15.54,0,55.87,14.49,70.6,14.49,2.85,0,4.75-.54,5.31-1.84,4.32-9.86-65.81-40.21-64.49-50.35,1.35-10.38,76.49-23.59,74.37-33.95-.52-2.54-5.37-3.41-12.47-3.41-15.51,0-41.78,4.15-57.21,4.15-6.35,0-10.87-.7-12.04-2.69-5.2-8.8,47.33-64.29,39.48-71.66-.44-.41-1.04-.6-1.79-.6-11.23,0-55.33,43.23-67.32,43.23-.65,0-1.2-.13-1.65-.39-8.68-5.12,14.8-78.4,4.67-82.22-.24-.09-.48-.13-.75-.13-10.12,0-39.86,64.45-50.62,64.45-.18,0-.36-.02-.54-.06-9.92-2.22-8.09-79.32-18.77-80.39-.07,0-.13-.01-.2-.01h0Z"/><text class="cls-1" transform="translate(127.85 195.61) rotate(-11.59)"><tspan x="0" y="0">he makes</tspan><tspan x="15.37" y="61.47">things!</tspan></text></g></svg>