<?xml version="1.0" standalone="no"?>
<!DOCTYPE svg PUBLIC "-//W3C//DTD SVG 20010904//EN"
 "http://www.w3.org/TR/2001/REC-SVG-20010904/DTD/svg10.dtd">
<svg version="1.0" xmlns="http://www.w3.org/2000/svg"
 width="700.000000pt" height="700.000000pt" viewBox="0 0 700.000000 700.000000"
 preserveAspectRatio="xMidYMid meet">
<metadata>
Created by potrace 1.14, written by Peter Selinger 2001-2017
</metadata>
<g transform="translate(0.000000,700.000000) scale(0.100000,-0.100000)"
fill="#000000" stroke="none">
<path d="M0 5915 c0 -597 2 -1085 4 -1085 2 0 36 57 76 128 41 70 111 192 158
271 82 141 227 393 482 836 172 299 498 863 522 903 l20 32 -631 0 -631 0 0
-1085z"/>
<path d="M2006 6978 c-12 -20 -143 -246 -578 -1003 -117 -203 -189 -328 -521
-901 -446 -773 -527 -916 -522 -924 3 -5 24 -19 48 -32 151 -86 1731 -999
1824 -1054 l73 -43 24 42 c13 23 89 155 168 292 80 138 225 388 322 557 169
294 179 307 199 296 26 -13 395 -225 450 -258 35 -21 37 -24 24 -44 -8 -11
-93 -158 -189 -326 -97 -168 -227 -393 -289 -500 -115 -199 -229 -397 -399
-693 -52 -91 -97 -164 -100 -162 -3 1 -311 179 -685 395 -374 216 -786 454
-915 528 -129 74 -298 172 -375 216 -77 45 -147 85 -155 89 -8 4 -103 58 -210
121 l-195 113 -3 -1840 c-1 -1012 -1 -1842 1 -1844 2 -2 589 -2 1304 -1 l1300
3 -94 105 c-192 213 -435 548 -416 572 10 12 110 181 175 298 14 25 74 128
133 230 214 370 293 506 316 548 16 28 29 40 39 36 32 -12 490 -279 490 -286
0 -6 -135 -243 -320 -563 -85 -146 -110 -191 -110 -198 0 -13 92 -146 161
-233 128 -160 317 -346 469 -458 l75 -56 820 0 820 0 37 63 c119 200 150 395
94 588 -95 327 -272 613 -785 1269 -158 202 -329 474 -426 675 -164 341 -230
708 -176 973 80 387 325 741 641 927 402 236 941 233 1511 -10 222 -95 576
-306 847 -507 l92 -68 0 1545 0 1545 -2490 0 -2490 0 -14 -22z"/>
<path d="M5150 4039 c-157 -30 -269 -87 -376 -194 -125 -125 -193 -276 -200
-450 -13 -309 202 -717 763 -1453 254 -333 471 -714 562 -987 66 -196 94 -355
94 -520 0 -148 -12 -228 -57 -363 l-23 -72 543 0 544 0 0 1195 c0 657 -2 1195
-4 1195 -2 0 -23 -34 -47 -75 -23 -41 -46 -75 -51 -75 -8 0 -475 267 -491 281
-9 7 15 51 262 477 150 259 152 264 134 284 -73 81 -439 364 -605 468 -340
212 -600 301 -875 299 -70 -1 -148 -5 -173 -10z"/>
</g>
</svg>
